<svg t="1729954591126" class="icon" viewBox="0 0 1024 1024" version="1.1" xmlns="http://www.w3.org/2000/svg" p-id="16003" width="200" height="200"><path d="M797.696 902.144H238.933333a170.666667 170.666667 0 0 1-170.666666-170.666667v-299.690666a170.666667 170.666667 0 0 1 170.666666-170.666667h558.762667a170.666667 170.666667 0 0 1 170.666667 170.666667v299.690666a170.666667 170.666667 0 0 1-170.666667 170.666667zM238.933333 329.386667a102.4 102.4 0 0 0-102.4 102.4v299.690666a102.4 102.4 0 0 0 102.4 102.4h558.762667a102.4 102.4 0 0 0 102.4-102.4v-299.690666a102.4 102.4 0 0 0-102.4-102.4z"  p-id="16004"></path><path d="M102.4 455.68a34.133333 34.133333 0 0 1-34.133333-34.133333V279.552a160.426667 160.426667 0 0 1 160.085333-160.426667h276.48a160.426667 160.426667 0 0 1 160.085333 160.426667v15.701333a34.133333 34.133333 0 0 1-34.133333 34.133334H228.010667A92.16 92.16 0 0 0 136.533333 421.546667a34.133333 34.133333 0 0 1-34.133333 34.133333z m125.610667-268.288A92.16 92.16 0 0 0 136.533333 279.552v10.922667a158.037333 158.037333 0 0 1 91.818667-29.354667h366.250667a92.16 92.16 0 0 0-90.112-73.728zM642.730667 614.4h-249.514667a34.133333 34.133333 0 0 1 0-68.266667h249.514667a34.133333 34.133333 0 0 1 0 68.266667z" p-id="16005"></path><path d="M518.144 740.693333a34.133333 34.133333 0 0 1-34.133333-34.133333v-249.514667a34.133333 34.133333 0 0 1 68.266666 0v249.514667a34.133333 34.133333 0 0 1-34.133333 34.133333z"  p-id="16006"></path></svg>