<svg t="1669016221543" viewBox="0 0 1024 1024" version="1.1" xmlns="http://www.w3.org/2000/svg" p-id="2700" width="200"
	height="200">
	<path
		d="M907.416 0.126H116.583C52.347 0.126 0.285 52.188 0.285 116.425v465.196c0 64.214 52.062 116.299 116.299 116.299h220.968l395.189 325 0.228-325h174.448c64.236 0 116.299-52.085 116.299-116.299V116.425C1023.715 52.188 971.652 0.126 907.416 0.126z m46.52 581.495c0 25.645-20.875 46.52-46.52 46.52H663.234l-0.045 69.733-0.114 177.401-281.207-231.257-19.308-15.877H116.583c-25.667 0-46.52-20.875-46.52-46.52V116.425c0-25.667 20.852-46.52 46.52-46.52h790.833c25.645 0 46.52 20.852 46.52 46.52v465.196z"
		p-id="2701"></path>
	<path
		d="M222.207 269.567c-44.93 0-81.409 36.434-81.409 81.409 0 44.975 36.479 81.409 81.409 81.409 44.975 0 81.409-36.435 81.409-81.409 0-44.975-36.434-81.409-81.409-81.409zM512.477 269.567c-44.952 0-81.409 36.434-81.409 81.409 0 44.975 36.457 81.409 81.409 81.409s81.409-36.435 81.409-81.409c0-44.975-36.457-81.409-81.409-81.409zM802.747 269.567c-44.952 0-81.409 36.434-81.409 81.409 0 44.975 36.457 81.409 81.409 81.409s81.409-36.435 81.409-81.409c0-44.975-36.457-81.409-81.409-81.409z"
		p-id="2702"></path>
</svg>