<svg t="1652676768856" class="icon" viewBox="0 0 1024 1024" version="1.1" xmlns="http://www.w3.org/2000/svg" p-id="1929" width="200" height="200"><path d="M1022.935551 817.496881c0 21.288981-14.902287 40.449064-34.06237 48.964657l0 57.480249c19.160083 6.386694 34.06237 25.546778 34.06237 48.964657 0 27.675676-23.417879 51.093555-51.093555 51.093555-21.288981 0-40.449064-14.902287-48.964657-34.06237l-57.480249 0c-6.386694 19.160083-25.546778 34.06237-48.964657 34.06237-21.288981 0-40.449064-14.902287-48.964657-34.06237l-57.480249 0c-6.386694 19.160083-25.546778 34.06237-48.964657 34.06237-21.288981 0-40.449064-14.902287-48.964657-34.06237l-57.480249 0C552.449064 1006.968815 533.288981 1021.871102 512 1021.871102c-21.288981 0-40.449064-14.902287-48.964657-34.06237l-57.480249 0c-6.386694 19.160083-25.546778 34.06237-48.964657 34.06237-21.288981 0-40.449064-14.902287-48.964657-34.06237l-57.480249 0c-6.386694 19.160083-25.546778 34.06237-48.964657 34.06237-21.288981 0-40.449064-14.902287-48.964657-34.06237L101.122661 987.808732C92.607069 1006.968815 73.446985 1021.871102 52.158004 1021.871102 24.482328 1021.871102 1.064449 998.453222 1.064449 970.777547c0-21.288981 14.902287-40.449064 34.06237-48.964657l0-57.480249C15.966736 857.945946 1.064449 838.785863 1.064449 817.496881c0-21.288981 14.902287-40.449064 34.06237-48.964657l0-57.480249C15.966736 704.665281 1.064449 685.505198 1.064449 664.216216c0-21.288981 14.902287-40.449064 34.06237-48.964657l0-57.480249C15.966736 551.384615 1.064449 532.224532 1.064449 510.935551c0-21.288981 14.902287-40.449064 34.06237-48.964657l0-57.480249C15.966736 398.10395 1.064449 378.943867 1.064449 357.654886c0-21.288981 14.902287-40.449064 34.06237-48.964657l0-57.480249C15.966736 244.823285 1.064449 225.663202 1.064449 204.37422s14.902287-40.449064 34.06237-48.964657L35.126819 100.058212C15.966736 91.54262 1.064449 72.382536 1.064449 51.093555 1.064449 23.417879 24.482328 0 52.158004 0c21.288981 0 40.449064 14.902287 48.964657 34.06237l57.480249 0C164.989605 14.902287 184.149688 0 205.438669 0c21.288981 0 40.449064 14.902287 48.964657 34.06237l57.480249 0C318.27027 14.902287 337.430353 0 358.719335 0c21.288981 0 40.449064 14.902287 48.964657 34.06237l57.480249 0C471.550936 14.902287 490.711019 0 512 0c21.288981 0 40.449064 14.902287 48.964657 34.06237l57.480249 0C624.831601 14.902287 643.991684 0 665.280665 0c21.288981 0 40.449064 14.902287 48.964657 34.06237l57.480249 0C778.112266 14.902287 797.272349 0 818.561331 0c21.288981 0 40.449064 14.902287 48.964657 34.06237l57.480249 0C931.392931 14.902287 950.553015 0 971.841996 0 999.517672 0 1022.935551 23.417879 1022.935551 51.093555c0 21.288981-14.902287 40.449064-34.06237 48.964657l0 57.480249C1008.033264 163.925156 1022.935551 183.085239 1022.935551 204.37422s-14.902287 40.449064-34.06237 48.964657l0 57.480249c19.160083 6.386694 34.06237 25.546778 34.06237 48.964657 0 21.288981-14.902287 40.449064-34.06237 48.964657l0 57.480249C1008.033264 470.486486 1022.935551 489.64657 1022.935551 510.935551c0 21.288981-14.902287 40.449064-34.06237 48.964657l0 57.480249c19.160083 6.386694 34.06237 25.546778 34.06237 48.964657 0 21.288981-14.902287 40.449064-34.06237 48.964657l0 57.480249C1008.033264 777.047817 1022.935551 796.2079 1022.935551 817.496881zM886.686071 136.24948 137.313929 136.24948l0 749.372141 749.372141 0L886.686071 136.24948zM443.87526 681.247401 682.31185 391.717256l153.280665 238.43659 0 204.37422L188.407484 834.528067l204.37422-204.37422L443.87526 681.247401zM341.68815 442.810811c-57.480249 0-102.18711-44.706861-102.18711-102.18711 0-57.480249 44.706861-102.18711 102.18711-102.18711s102.18711 44.706861 102.18711 102.18711C443.87526 398.10395 399.168399 442.810811 341.68815 442.810811z" p-id="1930" fill="#707070"></path></svg>