<svg t="1728485352432" class="icon" viewBox="0 0 1024 1024" version="1.1" xmlns="http://www.w3.org/2000/svg" p-id="1409"
	width="200" height="200">
	<path
		d="M472.192 162.133333l-19.2 25.6 19.2-25.6z m79.616 59.733334l19.2-25.6-19.2 25.6zM906.666667 426.666667v298.666666h64v-298.666666h-64zM768 864H256v64h512v-64zM117.333333 725.333333V298.666667h-64v426.666666h64zM654.208 288H768v-64h-113.792v64zM256 160h113.792v-64H256v64z m196.992 27.733333l79.616 59.733334 38.4-51.2-79.616-59.733334-38.4 51.2z m-83.2-27.733333a138.666667 138.666667 0 0 1 83.2 27.733333l38.4-51.2a202.666667 202.666667 0 0 0-121.6-40.533333v64z m284.416 64a138.666667 138.666667 0 0 1-83.2-27.733333l-38.4 51.2a202.666667 202.666667 0 0 0 121.6 40.533333v-64zM256 864A138.666667 138.666667 0 0 1 117.333333 725.333333h-64A202.666667 202.666667 0 0 0 256 928v-64zM906.666667 725.333333A138.666667 138.666667 0 0 1 768 864v64A202.666667 202.666667 0 0 0 970.666667 725.333333h-64z m64-298.666666A202.666667 202.666667 0 0 0 768 224v64A138.666667 138.666667 0 0 1 906.666667 426.666667h64z m-853.333334-128A138.666667 138.666667 0 0 1 256 160v-64A202.666667 202.666667 0 0 0 53.333333 298.666667h64z"
		p-id="1410"></path>
</svg>