<svg t="1669711991808" viewBox="0 0 1024 1024" version="1.1" xmlns="http://www.w3.org/2000/svg" p-id="3819" width="200"
	height="200">
	<path
		d="M913.408 384H732.16c-23.04 0-41.984-18.944-41.984-41.984 0-23.04 18.944-41.984 41.984-41.984h72.704c-65.536-92.672-173.568-153.088-295.936-153.088-200.192 0-362.496 162.304-362.496 362.496 0 200.192 162.304 362.496 362.496 362.496 200.192 0 362.496-162.304 362.496-362.496 0-23.04 18.944-41.984 41.984-41.984 23.04 0 41.984 18.944 41.984 41.984 0 246.272-199.68 445.952-445.952 445.952-246.272 0-445.952-199.68-445.952-445.952 0-246.272 199.68-445.952 445.952-445.952 149.504 0 281.6 73.728 362.496 186.368V175.104c0-23.04 18.944-41.984 41.984-41.984 23.04 0 41.984 18.944 41.984 41.984v167.424c-1.024 23.04-19.456 41.472-42.496 41.472z"
		p-id="3820"></path>
</svg>