<svg t="1730047654699" class="icon" viewBox="0 0 1024 1024" version="1.1" xmlns="http://www.w3.org/2000/svg" p-id="4330" width="200" height="200"><path d="M64.5 448.1h63.9V512H64.5zM192.4 480.1l191.7 159.8V512.1h255.8v-64H384.1V320.3z"  p-id="4331"></path><path d="M831.6 192.4H703.8c0-70.3-57.5-127.9-127.9-127.9H192.4c-70.3 0-127.9 57.5-127.9 127.9v127.9h63.9V192.4c0-35.2 28.7-63.9 63.9-63.9h383.6c35.2 0 63.9 28.7 63.9 63.9v63.9h191.8c35.2 0 63.9 28.7 63.9 63.9v447.5c0 35.2-28.7 63.9-63.9 63.9H192.4c-35.2 0-63.9-28.7-63.9-63.9V639.9h-64v127.9c0 70.3 57.5 127.9 127.9 127.9h639.3c70.3 0 127.9-57.5 127.9-127.9V320.3c-0.1-70.3-57.6-127.9-128-127.9z"  p-id="4332"></path></svg>